<svg width="129" height="40" viewBox="0 0 129 40" fill="none" xmlns="http://www.w3.org/2000/svg">
<path fill-rule="evenodd" clip-rule="evenodd" d="M40 10L40 40L25 25L10 10L40 10Z" fill="#C5D8FC"/>
<path fill-rule="evenodd" clip-rule="evenodd" d="M0 30L0 0L15 15L30 30L0 30Z" fill="#5956E9"/>
<path d="M64.36 26.2676V12.2676H69.54C70.66 12.2676 71.5867 12.4542 72.32 12.8276C73.0533 13.2009 73.6 13.7142 73.96 14.3676C74.32 15.0209 74.5 15.7542 74.5 16.5676C74.5 17.3409 74.3267 18.0542 73.98 18.7076C73.6333 19.3476 73.0933 19.8676 72.36 20.2676C71.6267 20.6542 70.6867 20.8476 69.54 20.8476H66.92V26.2676H64.36ZM66.92 18.7676H69.38C70.2733 18.7676 70.9133 18.5742 71.3 18.1876C71.7 17.7876 71.9 17.2476 71.9 16.5676C71.9 15.8742 71.7 15.3342 71.3 14.9476C70.9133 14.5476 70.2733 14.3476 69.38 14.3476H66.92V18.7676ZM78.8823 26.5076C78.029 26.5076 77.329 26.3742 76.7823 26.1076C76.2357 25.8276 75.829 25.4609 75.5623 25.0076C75.2957 24.5542 75.1623 24.0542 75.1623 23.5076C75.1623 22.5876 75.5223 21.8409 76.2423 21.2676C76.9623 20.6942 78.0423 20.4076 79.4823 20.4076H82.0023V20.1676C82.0023 19.4876 81.809 18.9876 81.4223 18.6676C81.0357 18.3476 80.5557 18.1876 79.9823 18.1876C79.4623 18.1876 79.009 18.3142 78.6223 18.5676C78.2357 18.8076 77.9957 19.1676 77.9023 19.6476H75.4023C75.469 18.9276 75.709 18.3009 76.1223 17.7676C76.549 17.2342 77.0957 16.8276 77.7623 16.5476C78.429 16.2542 79.1757 16.1076 80.0023 16.1076C81.4157 16.1076 82.529 16.4609 83.3423 17.1676C84.1557 17.8742 84.5623 18.8742 84.5623 20.1676V26.2676H82.3823L82.1423 24.6676C81.849 25.2009 81.4357 25.6409 80.9023 25.9876C80.3823 26.3342 79.709 26.5076 78.8823 26.5076ZM79.4623 24.5076C80.1957 24.5076 80.7623 24.2676 81.1623 23.7876C81.5757 23.3076 81.8357 22.7142 81.9423 22.0076H79.7623C79.0823 22.0076 78.5957 22.1342 78.3023 22.3876C78.009 22.6276 77.8623 22.9276 77.8623 23.2876C77.8623 23.6742 78.009 23.9742 78.3023 24.1876C78.5957 24.4009 78.9823 24.5076 79.4623 24.5076ZM87.5522 30.6676L89.8522 25.6076H89.2522L85.3922 16.3476H88.1722L90.9522 23.3276L93.8522 16.3476H96.5722L90.2722 30.6676H87.5522ZM97.8846 30.6676V16.3476H100.165L100.445 17.7676C100.765 17.3276 101.185 16.9409 101.705 16.6076C102.238 16.2742 102.925 16.1076 103.765 16.1076C104.698 16.1076 105.531 16.3342 106.265 16.7876C106.998 17.2409 107.578 17.8609 108.005 18.6476C108.431 19.4342 108.645 20.3276 108.645 21.3276C108.645 22.3276 108.431 23.2209 108.005 24.0076C107.578 24.7809 106.998 25.3942 106.265 25.8476C105.531 26.2876 104.698 26.5076 103.765 26.5076C103.018 26.5076 102.365 26.3676 101.805 26.0876C101.245 25.8076 100.791 25.4142 100.445 24.9076V30.6676H97.8846ZM103.225 24.2676C104.038 24.2676 104.711 23.9942 105.245 23.4476C105.778 22.9009 106.045 22.1942 106.045 21.3276C106.045 20.4609 105.778 19.7476 105.245 19.1876C104.711 18.6276 104.038 18.3476 103.225 18.3476C102.398 18.3476 101.718 18.6276 101.185 19.1876C100.665 19.7342 100.405 20.4409 100.405 21.3076C100.405 22.1742 100.665 22.8876 101.185 23.4476C101.718 23.9942 102.398 24.2676 103.225 24.2676ZM115.39 26.5076C114.39 26.5076 113.504 26.2942 112.73 25.8676C111.957 25.4409 111.35 24.8409 110.91 24.0676C110.47 23.2942 110.25 22.4009 110.25 21.3876C110.25 20.3609 110.464 19.4476 110.89 18.6476C111.33 17.8476 111.93 17.2276 112.69 16.7876C113.464 16.3342 114.37 16.1076 115.41 16.1076C116.384 16.1076 117.244 16.3209 117.99 16.7476C118.737 17.1742 119.317 17.7609 119.73 18.5076C120.157 19.2409 120.37 20.0609 120.37 20.9676C120.37 21.1142 120.364 21.2676 120.35 21.4276C120.35 21.5876 120.344 21.7542 120.33 21.9276H112.79C112.844 22.7009 113.11 23.3076 113.59 23.7476C114.084 24.1876 114.677 24.4076 115.37 24.4076C115.89 24.4076 116.324 24.2942 116.67 24.0676C117.03 23.8276 117.297 23.5209 117.47 23.1476H120.07C119.884 23.7742 119.57 24.3476 119.13 24.8676C118.704 25.3742 118.17 25.7742 117.53 26.0676C116.904 26.3609 116.19 26.5076 115.39 26.5076ZM115.41 18.1876C114.784 18.1876 114.23 18.3676 113.75 18.7276C113.27 19.0742 112.964 19.6076 112.83 20.3276H117.77C117.73 19.6742 117.49 19.1542 117.05 18.7676C116.61 18.3809 116.064 18.1876 115.41 18.1876ZM122.162 26.2676V16.3476H124.442L124.682 18.2076C125.042 17.5676 125.529 17.0609 126.142 16.6876C126.769 16.3009 127.502 16.1076 128.342 16.1076V18.8076H127.622C127.062 18.8076 126.562 18.8942 126.122 19.0676C125.682 19.2409 125.336 19.5409 125.082 19.9676C124.842 20.3942 124.722 20.9876 124.722 21.7476V26.2676H122.162Z" fill="#5956E9"/>
</svg>
